<?xml version="1.0" encoding="UTF-8" standalone="no"?>
<svg
   xmlns:dc="http://purl.org/dc/elements/1.1/"
   xmlns:cc="http://creativecommons.org/ns#"
   xmlns:rdf="http://www.w3.org/1999/02/22-rdf-syntax-ns#"
   xmlns:svg="http://www.w3.org/2000/svg"
   xmlns="http://www.w3.org/2000/svg"
   viewBox="0 0 598.104 391.84933"
   height="391.84933"
   width="598.104"
   xml:space="preserve"
   id="svg2"
   version="1.1"><metadata
     id="metadata8"><rdf:RDF><cc:Work
         rdf:about=""><dc:format>image/svg+xml</dc:format><dc:type
           rdf:resource="http://purl.org/dc/dcmitype/StillImage" /></cc:Work></rdf:RDF></metadata><defs
     id="defs6"><clipPath
       id="clipPath18"
       clipPathUnits="userSpaceOnUse"><path
         id="path16"
         d="M 0,293.887 H 448.578 V 0 H 0 Z" /></clipPath></defs><g
     transform="matrix(1.3333333,0,0,-1.3333333,0,391.84933)"
     id="g10"><g
       id="g12"><g
         clip-path="url(#clipPath18)"
         id="g14"><g
           transform="translate(298.9062,157.8242)"
           id="g20"><path
             id="path22"
             style="fill:#8cb8ca;fill-opacity:1;fill-rule:nonzero;stroke:none"
             d="m 0,0 h 0.667 c 0.778,0 1.407,0.261 1.407,0.887 0,0.55 -0.407,0.922 -1.296,0.922 C 0.406,1.809 0.149,1.771 0,1.736 Z m -0.036,-3.393 h -1.408 v 6.049 c 0.556,0.074 1.336,0.185 2.333,0.185 1.149,0 1.668,-0.185 2.076,-0.479 C 3.333,2.104 3.593,1.663 3.593,1.071 3.593,0.335 3.038,-0.146 2.335,-0.366 V -0.44 C 2.928,-0.624 3.224,-1.104 3.41,-1.916 3.593,-2.839 3.741,-3.169 3.854,-3.393 H 2.371 c -0.184,0.224 -0.297,0.741 -0.48,1.477 -0.112,0.629 -0.483,0.921 -1.261,0.921 h -0.666 z m 0.925,7.965 c -2.628,0 -4.667,-2.173 -4.667,-4.827 0,-2.693 2.039,-4.834 4.741,-4.834 2.63,-0.037 4.633,2.141 4.633,4.796 0,2.692 -2.003,4.865 -4.669,4.865 z m 0.074,1.222 c 3.445,0 6.186,-2.657 6.186,-6.049 0,-3.395 -2.741,-6.088 -6.222,-6.088 -3.483,0 -6.261,2.693 -6.261,6.088 0,3.392 2.778,6.049 6.261,6.049 z" /></g><g
           transform="translate(211.9771,293.8848)"
           id="g24"><path
             id="path26"
             style="fill:#8cb8ca;fill-opacity:1;fill-rule:nonzero;stroke:none"
             d="m 0,0 -2.326,0.002 -38.612,-74.993 -64.889,39.774 -3.853,0.126 33.092,-102.53 22.409,3.04 -19.423,57.124 43.293,-25.154 7.912,16.254 -0.015,0.01 20.997,41.769 17.728,-36.864 18.925,11.033 z" /></g><g
           transform="translate(314.5479,258.6675)"
           id="g28"><path
             id="path30"
             style="fill:#8cb8ca;fill-opacity:1;fill-rule:nonzero;stroke:none"
             d="m 0,0 -104.198,-63.306 -15.582,9.103 -7.706,-16.326 21.967,-12.763 h 1.321 1.322 l 70.652,41.052 -19.422,-57.124 22.408,-3.04 33.093,102.53 z" /></g><g
           transform="translate(55.0098,87.3271)"
           id="g32"><path
             id="path34"
             style="fill:#231f20;fill-opacity:1;fill-rule:nonzero;stroke:none"
             d="M 0,0 -51.265,46.911 H -55.01 V -34.69 h 16.441 V 14.562 L -1.324,-19.475 H 1.158 L 36.533,14.417 V -34.69 h 16.442 v 81.601 h -3.767 z" /></g><path
           id="path36"
           style="fill:#231f20;fill-opacity:1;fill-rule:nonzero;stroke:none"
           d="m 128.234,52.637 h 16.443 v 80.374 h -16.443 z" /><g
           transform="translate(229.8477,81.5947)"
           id="g38"><path
             id="path40"
             style="fill:#231f20;fill-opacity:1;fill-rule:nonzero;stroke:none"
             d="m 0,0 h -40.183 l 19.882,29.565 z m -21.575,53.749 -55.567,-82.707 h 17.589 l 9.941,14.848 H 9.729 l 10.183,-14.848 h 18.234 l -56.725,82.707 z" /></g><g
           transform="translate(329.7656,87.3271)"
           id="g42"><path
             id="path44"
             style="fill:#231f20;fill-opacity:1;fill-rule:nonzero;stroke:none"
             d="m 0,0 -51.266,46.911 h -3.745 V -34.69 h 16.443 V 14.562 L -1.327,-19.475 H 1.156 L 36.532,14.417 V -34.69 h 16.444 v 81.601 h -3.767 z" /></g><path
           id="path46"
           style="fill:#231f20;fill-opacity:1;fill-rule:nonzero;stroke:none"
           d="m 402.989,52.637 h 16.444 v 80.374 h -16.444 z" /><g
           transform="translate(23.2646)"
           id="g48"><path
             id="path50"
             style="fill:#231f20;fill-opacity:1;fill-rule:nonzero;stroke:none"
             d="m 0,0 c -13.142,0 -22.466,5.511 -22.466,15.269 0,9.808 9.954,15.703 22.176,15.703 9.276,0 13.818,-1.741 15.606,-2.417 V 24.98 L 15.124,24.835 C 12.852,26.384 8.698,28.7 -0.145,28.7 c -10.386,0 -17.731,-4.444 -17.731,-13.431 0,-8.648 6.33,-12.997 17.876,-12.997 7.973,0 11.983,2.078 15.992,5.218 L 16.234,7.393 V 3.575 C 14.11,2.367 8.745,0 0,0" /></g><g
           transform="translate(64.8633,2.2725)"
           id="g52"><path
             id="path54"
             style="fill:#231f20;fill-opacity:1;fill-rule:nonzero;stroke:none"
             d="m 0,0 c 10.871,0 17.153,4.783 17.153,13.094 0,8.358 -6.62,13.334 -17.153,13.334 -10.533,0 -16.958,-4.881 -16.958,-13.24 C -16.958,4.878 -10.822,0 0,0 m 0.097,-2.272 c -11.306,0 -21.645,5.073 -21.645,15.366 0,10.724 10.869,15.605 21.645,15.605 10.726,0 21.645,-4.783 21.645,-15.511 0,-10.29 -10.341,-15.46 -21.645,-15.46" /></g><g
           transform="translate(93.3662,30.585)"
           id="g56"><path
             id="path58"
             style="fill:#231f20;fill-opacity:1;fill-rule:nonzero;stroke:none"
             d="m 0,0 h 3.769 c 8.794,-8.264 19.614,-17.925 28.456,-25.704 0.097,6.813 0.097,19.325 0,25.559 L 32.418,0 h 2.416 l 0.194,-0.195 c -0.194,-8.645 -0.194,-20.675 0,-29.76 l -0.242,-0.195 h -3.575 c -7.586,7.344 -20.05,18.506 -28.604,25.996 -0.094,-6.039 -0.144,-18.315 0,-25.852 L 2.416,-30.15 H -0.05 l -0.143,0.144 c 0.143,7.443 0.143,22.856 0,29.861 z" /></g><g
           transform="translate(141.0024,2.8984)"
           id="g60"><path
             id="path62"
             style="fill:#231f20;fill-opacity:1;fill-rule:nonzero;stroke:none"
             d="m 0,0 c 2.607,-0.239 4.156,-0.674 10.822,-0.674 13.142,0 19.278,4.831 19.278,12.853 0,8.792 -6.475,13.623 -19.518,13.623 C 5.46,25.802 2.996,25.367 0,24.933 -0.146,20.002 -0.099,8.166 0,0 m -4.106,-2.369 c 0.191,9.28 0.191,22.616 0,29.621 l 0.191,0.192 c 3.72,0.145 6.911,0.629 15.414,0.629 12.321,0 23.191,-5.075 23.191,-15.8 0,-9.567 -10.531,-15.171 -23.191,-15.171 -7.537,0 -11.983,0.434 -15.414,0.387 z" /></g><g
           transform="translate(201.8774,2.2725)"
           id="g64"><path
             id="path66"
             style="fill:#231f20;fill-opacity:1;fill-rule:nonzero;stroke:none"
             d="m 0,0 c 10.87,0 17.152,4.783 17.152,13.094 0,8.358 -6.621,13.334 -17.152,13.334 -10.534,0 -16.96,-4.881 -16.96,-13.24 C -16.96,4.878 -10.823,0 0,0 m 0.096,-2.272 c -11.306,0 -21.645,5.073 -21.645,15.366 0,10.724 10.869,15.605 21.645,15.605 10.726,0 21.646,-4.783 21.646,-15.511 0,-10.29 -10.341,-15.46 -21.646,-15.46" /></g><g
           transform="translate(247.917,0.4346)"
           id="g68"><path
             id="path70"
             style="fill:#231f20;fill-opacity:1;fill-rule:nonzero;stroke:none"
             d="m 0,0 h -3.818 l -0.144,0.095 c 0.193,9.28 0.193,22.953 0,29.911 l 0.193,0.144 H 0 L 0.192,29.955 C 0.047,25.27 0,19.086 0,12.805 9.903,19.28 17.104,24.788 24.256,30.15 h 5.41 l 0.096,-0.195 C 24.495,26.817 18.071,22.516 11.402,17.877 16.957,12.758 24.593,5.944 31.744,0.195 L 31.598,0 H 25.847 C 19.277,6.281 14.301,10.63 8.166,15.605 L 0,9.906 C 0.047,6.477 0.095,3.141 0.192,0.145 Z" /></g><g
           transform="translate(284.877,0.5791)"
           id="g72"><path
             id="path74"
             style="fill:#231f20;fill-opacity:1;fill-rule:nonzero;stroke:none"
             d="m 0,0 c 0.192,9.277 0.192,22.855 0,29.811 l 0.144,0.195 H 3.961 L 4.153,29.861 C 3.961,19.426 4.008,9.762 4.105,0 L 3.912,-0.145 H 0.144 Z" /></g><g
           transform="translate(297.9668,30.585)"
           id="g76"><path
             id="path78"
             style="fill:#231f20;fill-opacity:1;fill-rule:nonzero;stroke:none"
             d="m 0,0 h 3.769 c 8.793,-8.264 19.616,-17.925 28.459,-25.704 0.097,6.813 0.097,19.325 0,25.559 L 32.421,0 h 2.415 l 0.192,-0.195 c -0.192,-8.645 -0.192,-20.675 0,-29.76 l -0.242,-0.195 h -3.573 c -7.585,7.344 -20.051,18.506 -28.604,25.996 -0.097,-6.039 -0.143,-18.315 0,-25.852 L 2.417,-30.15 h -2.466 l -0.142,0.144 c 0.142,7.443 0.142,22.856 0,29.861 z" /></g><g
           transform="translate(361.7422)"
           id="g80"><path
             id="path82"
             style="fill:#231f20;fill-opacity:1;fill-rule:nonzero;stroke:none"
             d="m 0,0 c -12.997,0 -22.177,5.413 -22.177,15.319 0,9.567 10.098,15.653 21.982,15.653 9.906,0 14.543,-1.693 16.334,-2.464 V 24.496 L 15.943,24.401 C 13.771,26.235 9.807,28.7 -0.049,28.7 c -10.533,0 -17.538,-4.494 -17.538,-13.381 0,-8.99 6.038,-13.047 17.587,-13.047 6.087,0 9.758,1.111 13.188,2.415 0.099,3.429 0.099,5.362 -0.047,10.485 l 0.194,0.194 h 3.768 l 0.194,-0.144 C 17.103,10.294 17.103,7.537 17.297,3.094 12.514,1.209 7.633,0 0,0" /></g><g
           transform="translate(409.7168,13.8682)"
           id="g84"><path
             id="path86"
             style="fill:#231f20;fill-opacity:1;fill-rule:nonzero;stroke:none"
             d="m 0,0 c -4.687,0.771 -11.888,0.095 -18.215,1.546 -4.3,0.966 -6.572,3.187 -6.572,6.86 0,5.217 5.027,8.698 16.092,8.698 8.937,0 13.286,-1.838 15.024,-2.801 V 10.775 L 6.087,10.678 c -2.028,1.689 -6.378,4.154 -15.026,4.154 -10.098,0 -12.561,-2.946 -12.561,-5.699 0,-2.465 1.643,-3.867 4.83,-4.494 4.88,-0.969 11.741,-0.435 17.491,-1.259 5.026,-0.724 8.02,-2.753 8.02,-6.907 0,-5.847 -5.362,-10.341 -17.877,-10.341 -9.035,0 -14.349,2.128 -16.475,3.528 v 3.914 l 0.194,0.095 c 3.526,-3.091 8.262,-5.265 16.523,-5.265 10.437,0 14.059,2.993 14.059,6.813 C 5.265,-2.366 3.574,-0.579 0,0" /></g><g
           transform="translate(446.6992,123.9707)"
           id="g88"><path
             id="path90"
             style="fill:#231f20;fill-opacity:1;fill-rule:nonzero;stroke:none"
             d="M 0,0 -0.349,5.571 C -0.384,6.303 -0.384,7.172 -0.418,8.219 H -0.522 C -0.768,7.384 -1.046,6.27 -1.324,5.398 L -3.029,0.142 h -1.95 L -6.65,5.537 c -0.174,0.696 -0.488,1.847 -0.697,2.682 h -0.104 c 0,-0.869 -0.034,-1.81 -0.07,-2.648 L -7.868,0 H -9.68 l 0.698,9.472 h 2.854 l 1.602,-4.63 C -4.282,4.109 -4.11,3.416 -3.899,2.438 h 0.069 c 0.209,0.835 0.452,1.671 0.626,2.333 l 1.637,4.701 h 2.75 L 1.879,0 Z M -10.236,9.472 V 7.907 h -3.03 V 0 h -1.88 v 7.907 h -2.994 v 1.565 z" /></g></g></g></g></svg>