<svg width="22" height="19" viewBox="0 0 22 19" fill="none" xmlns="http://www.w3.org/2000/svg">
<path d="M0.191895 12.6826C0.191895 15.9521 1.40283 17.8896 3.82471 18.4951C4.30908 18.6162 4.76318 18.6768 5.18701 18.6768C7.12451 18.6768 8.45654 17.7686 9.18311 15.9521C9.42529 15.3467 9.54639 14.7412 9.54639 14.1357C9.54639 12.1982 8.57764 10.8662 6.64014 10.1396C6.3374 10.0791 6.09521 10.0186 5.91357 9.95801C4.58154 9.59473 3.88525 9.08008 3.82471 8.41406C3.88525 6.7793 5.21729 4.59961 7.8208 1.875L5.91357 0.512695C2.22021 4.50879 0.312988 8.56543 0.191895 12.6826ZM11.9077 12.6826C11.9077 15.9521 13.1187 17.8896 15.5405 18.4951C16.0249 18.6162 16.479 18.6768 16.9028 18.6768C18.8403 18.6768 20.1724 17.7686 20.8989 15.9521C21.1411 15.3467 21.2622 14.7412 21.2622 14.1357C21.2622 12.1982 20.2935 10.8662 18.356 10.1396C18.0532 10.0791 17.811 10.0186 17.6294 9.95801C16.2974 9.59473 15.6011 9.08008 15.5405 8.41406C15.6011 6.7793 16.9331 4.59961 19.5366 1.875L17.6294 0.512695C13.936 4.50879 12.0288 8.56543 11.9077 12.6826Z" fill="black"/>
</svg>
